<?xml version="1.0" encoding="utf-8"?>
<!-- Generator: Adobe Illustrator 23.0.5, SVG Export Plug-In . SVG Version: 6.00 Build 0)  -->
<svg version="1.1" id="Layer_1" xmlns="http://www.w3.org/2000/svg" xmlns:xlink="http://www.w3.org/1999/xlink" x="0px" y="0px"
	 viewBox="0 0 497.4 405.1" style="enable-background:new 0 0 497.4 405.1;" xml:space="preserve">
<style type="text/css">
	.st0{opacity:0.34;fill:#353535;enable-background:new    ;}
	.st1{fill:#F7E4CB;}
	.st2{fill:#E0C5AA;}
	.st3{fill:none;stroke:#353535;stroke-width:6;stroke-linecap:round;stroke-linejoin:round;stroke-miterlimit:10;}
	.st4{fill:#353535;}
	.st5{opacity:0.3;fill:#282828;enable-background:new    ;}
	.st6{fill:none;stroke:#353535;stroke-width:2;stroke-linecap:round;stroke-linejoin:round;stroke-miterlimit:10;}
	.st7{fill:#F2EBE1;}
	.st8{fill:#C6A485;}
	.st9{fill:#CF9742;}
	.st10{fill:#6E9546;}
	.st11{fill:#7C4D83;}
	.st12{fill:#4D8DB9;}
	.st13{fill:#CB6757;}
	.st14{fill:none;stroke:#FFFFFF;stroke-width:8;stroke-linecap:round;stroke-linejoin:round;stroke-miterlimit:10;}
	.st15{fill:#282828;}
</style>
<g>
	<path id="XMLID_38_" class="st0" d="M482.4,405.1H15c-8.3,0-15-6.7-15-15l0,0c0-8.3,6.7-15,15-15h467.4c8.3,0,15,6.7,15,15l0,0
		C497.4,398.4,490.7,405.1,482.4,405.1z"/>
	<path id="XMLID_19_" class="st1" d="M341,343.8H105c-9.9,0-18-8.1-18-18V21c0-9.9,8.1-18,18-18h236c9.9,0,18,8.1,18,18v304.8
		C359,335.7,350.9,343.8,341,343.8z"/>
	<path id="XMLID_30_" class="st2" d="M341,343.8H105c-9.9,0-18-8.1-18-18V21c0-9.9,8.1-18,18-18h236c9.9,0,18,8.1,18,18v304.8
		C359,335.7,350.9,343.8,341,343.8z"/>
	<path id="XMLID_31_" class="st1" d="M99,311V31c0-5.7,4.6-10.2,10.2-10.2h227.5c5.7,0,10.2,4.6,10.2,10.2v280
		c0,5.7-4.6,10.2-10.2,10.2H109.3C103.6,321.3,99,316.7,99,311z"/>
	<path id="XMLID_1_" class="st3" d="M341,343.8H105c-9.9,0-18-8.1-18-18V21c0-9.9,8.1-18,18-18h236c9.9,0,18,8.1,18,18v304.8
		C359,335.7,350.9,343.8,341,343.8z"/>
	<path id="XMLID_34_" class="st2" d="M123.7,219.8c-5.4,0-9.7-4.3-9.7-9.7V47.5c0-5.4,4.3-9.7,9.7-9.7h198.6c5.4,0,9.7,4.3,9.7,9.7
		v162.6c0,5.4-4.3,9.7-9.7,9.7H123.7z"/>
	<path id="XMLID_22_" class="st4" d="M141.7,209.2c-9.5,0-17.2-7.7-17.2-17.2V65.5c0-9.5,7.7-17.2,17.2-17.2h162.6
		c9.5,0,17.2,7.7,17.2,17.2v126.4c0,9.5-7.7,17.2-17.2,17.2H141.7V209.2z"/>
	<path id="XMLID_39_" class="st5" d="M304.3,48.3h-20.2c3.5,7.3,5.5,15.5,5.5,24.2l0,0c0,57.8-46.9,104.7-104.7,104.7h-36.2
		c-8.7,0-16.9-2-24.2-5.5v20.2c0,9.5,7.7,17.2,17.2,17.2h162.6c9.5,0,17.2-7.7,17.2-17.2V65.5C321.6,56,313.9,48.3,304.3,48.3z"/>
	<path id="XMLID_7_" class="st2" d="M293.5,260.8v-3.1h-68.7v-12h68.7v-3.1c0-1,0.8-1.9,1.9-1.9h36.2c1,0,1.9,0.8,1.9,1.9v18.2
		c0,1-0.8,1.9-1.9,1.9h-36.2C294.3,262.7,293.5,261.9,293.5,260.8z"/>
	<rect id="XMLID_10_" x="324" y="248.7" class="st4" width="4.3" height="6"/>
	<path id="XMLID_5_" class="st6" d="M142.1,297h-19.4c-1,0-1.9-0.8-1.9-1.9v-19.4c0-1,0.8-1.9,1.9-1.9h19.4c1,0,1.9,0.8,1.9,1.9
		v19.4C144,296.1,143.2,297,142.1,297z"/>
	<path id="XMLID_4_" class="st7" d="M387.7,390.1c0-9.9,10.5-18,23.5-18s23.5,8.1,23.5,18H387.7z"/>
	<path id="XMLID_14_" class="st3" d="M387.7,390.1c0-9.9,10.5-18,23.5-18s23.5,8.1,23.5,18H387.7z"/>
	<rect id="XMLID_24_" x="104" y="345" class="st2" width="238" height="24"/>
	<rect id="XMLID_12_" x="104" y="345" class="st8" width="238" height="9.9"/>
	<rect id="XMLID_9_" x="104" y="345" class="st3" width="238" height="24"/>
	<rect id="XMLID_29_" x="147" y="360.1" class="st2" width="152" height="12"/>
	<rect id="XMLID_28_" x="337" y="360.1" class="st2" width="20" height="12"/>
	<rect id="XMLID_27_" x="308" y="360.1" class="st2" width="20" height="12"/>
	<rect id="XMLID_26_" x="118" y="360.1" class="st2" width="20" height="12"/>
	<rect id="XMLID_25_" x="89" y="360.1" class="st2" width="20" height="12"/>
	<rect id="XMLID_23_" x="68.8" y="372.1" class="st1" width="308.3" height="18"/>
	<rect id="XMLID_11_" x="68.8" y="372.1" class="st3" width="308.3" height="18"/>
	<rect id="XMLID_13_" x="147" y="360.1" class="st3" width="152" height="12"/>
	<rect id="XMLID_15_" x="337" y="360.1" class="st3" width="20" height="12"/>
	<rect id="XMLID_16_" x="308" y="360.1" class="st3" width="20" height="12"/>
	<rect id="XMLID_18_" x="118" y="360.1" class="st3" width="20" height="12"/>
	<rect id="XMLID_17_" x="89" y="360.1" class="st3" width="20" height="12"/>
	<path id="XMLID_37_" class="st9" d="M134.6,283.6c-0.9-0.8-1.5-1.9-1.8-3.1h-6.3c-0.7,0.9-1.3,2-1.6,3.1H134.6z"/>
	<path id="XMLID_55_" class="st10" d="M132.6,279.2c0-0.5,0.1-1.1,0.2-1.5c-0.1,0-0.3,0-0.4,0c-2.4,0-4.5,1.1-5.9,2.8h6.3
		C132.7,280,132.6,279.6,132.6,279.2z"/>
	<path id="XMLID_59_" class="st11" d="M126.5,290.4h11.8c0.8-0.9,1.3-2,1.6-3.1h-15C125.2,288.4,125.8,289.5,126.5,290.4z"/>
	<path id="XMLID_61_" class="st12" d="M132.4,293.1c2.4,0,4.5-1.1,5.9-2.7h-11.8C128,292.1,130.1,293.1,132.4,293.1z"/>
	<path id="XMLID_64_" class="st13" d="M124.7,285.4c0,0.6,0.1,1.3,0.2,1.9h15c0.1-0.6,0.2-1.2,0.2-1.9c0-0.1,0-0.3,0-0.4
		c-0.5,0.1-1,0.2-1.5,0.2c-1.6,0-3-0.6-4-1.6H125C124.8,284.2,124.7,284.8,124.7,285.4z"/>
	<line id="XMLID_20_" class="st14" x1="152.5" y1="69.3" x2="168.6" y2="69.3"/>
	<line id="XMLID_21_" class="st14" x1="185.3" y1="69.3" x2="242.7" y2="69.3"/>
	<path id="XMLID_8_" class="st4" d="M328.3,250.7h-31.4v-4.8c0-1,0.8-1.9,1.9-1.9h27.6c1,0,1.9,0.8,1.9,1.9V250.7z"/>
	<path id="XMLID_32_" class="st4" d="M326.4,259.4h-27.6c-1,0-1.9-0.8-1.9-1.9v-5.8h31.4v5.8C328.3,258.5,327.4,259.4,326.4,259.4z"
		/>
	<path id="XMLID_36_" class="st3" d="M128,343.8"/>
	<path id="XMLID_6_" class="st15" d="M324.4,254.7h-94.6c-0.5,0-1-0.4-1-1v-4.1c0-0.5,0.4-1,1-1h94.6c0.5,0,1,0.4,1,1v4.1
		C325.3,254.3,324.9,254.7,324.4,254.7z"/>
</g>
</svg>
